<svg xmlns="http://www.w3.org/2000/svg" viewBox="0 0 800 800">
  <!-- Green and Orange Border Circle -->
  <defs>
    <linearGradient id="borderGradient" x1="0%" y1="0%" x2="100%" y2="100%">
      <stop offset="0%" style="stop-color:#16a34a"/>
      <stop offset="75%" style="stop-color:#16a34a"/>
      <stop offset="75%" style="stop-color:#ea580c"/>
      <stop offset="100%" style="stop-color:#ea580c"/>
    </linearGradient>
  </defs>
  
  <!-- Outer border -->
  <circle cx="400" cy="400" r="380" fill="url(#borderGradient)"/>
  
  <!-- Inner white circle -->
  <circle cx="400" cy="400" r="330" fill="white"/>
  
  <!-- BJP Lotus Symbol -->
  <g transform="translate(400,250)" fill="none" stroke="#000" stroke-width="8" stroke-linecap="round" stroke-linejoin="round">
    <!-- Center petal -->
    <path d="M 0,50 C -25,25 -25,-25 0,-50 C 25,-25 25,25 0,50 Z"/>
    
    <!-- Left petals -->
    <path d="M -15,40 C -50,30 -70,-10 -60,-40 C -40,-50 -20,-30 -15,0"/>
    <path d="M -30,20 C -70,15 -90,-20 -85,-50 C -70,-60 -45,-45 -30,-15"/>
    
    <!-- Right petals -->
    <path d="M 15,40 C 50,30 70,-10 60,-40 C 40,-50 20,-30 15,0"/>
    <path d="M 30,20 C 70,15 90,-20 85,-50 C 70,-60 45,-45 30,-15"/>
    
    <!-- Outer left and right petals -->
    <path d="M -45,5 C -80,0 -100,-35 -95,-65 C -80,-75 -55,-60 -45,-30"/>
    <path d="M 45,5 C 80,0 100,-35 95,-65 C 80,-75 55,-60 45,-30"/>
  </g>
  
  <!-- Stem -->
  <line x1="400" y1="300" x2="400" y2="380" stroke="#000" stroke-width="8"/>
  
  <!-- Base/Ground -->
  <g transform="translate(400,390)" fill="#000">
    <circle cx="-25" cy="0" r="4"/>
    <circle cx="-15" cy="5" r="4"/>
    <circle cx="-5" cy="0" r="4"/>
    <circle cx="5" cy="5" r="4"/>
    <circle cx="15" cy="0" r="4"/>
    <circle cx="25" cy="5" r="4"/>
    
    <circle cx="-20" cy="10" r="3"/>
    <circle cx="-10" cy="12" r="3"/>
    <circle cx="0" cy="10" r="3"/>
    <circle cx="10" cy="12" r="3"/>
    <circle cx="20" cy="10" r="3"/>
  </g>
</svg>